<?xml version="1.0" encoding="UTF-8" standalone="no"?>
<!-- Created with Inkscape (http://www.inkscape.org/) -->

<svg
   xmlns:dc="http://purl.org/dc/elements/1.1/"
   xmlns:cc="http://creativecommons.org/ns#"
   xmlns:rdf="http://www.w3.org/1999/02/22-rdf-syntax-ns#"
   xmlns:svg="http://www.w3.org/2000/svg"
   xmlns="http://www.w3.org/2000/svg"
   xmlns:sodipodi="http://sodipodi.sourceforge.net/DTD/sodipodi-0.dtd"
   xmlns:inkscape="http://www.inkscape.org/namespaces/inkscape"
   width="210mm"
   height="297mm"
   viewBox="0 0 744.09448819 1052.3622047"
   id="svg2"
   version="1.1"
   inkscape:version="0.91 r13725"
   sodipodi:docname="Vixen_Storage.svg">
  <defs
     id="defs4" />
  <sodipodi:namedview
     id="base"
     pagecolor="#ffffff"
     bordercolor="#666666"
     borderopacity="1.0"
     inkscape:pageopacity="0.0"
     inkscape:pageshadow="2"
     inkscape:zoom="0.98994949"
     inkscape:cx="390.08657"
     inkscape:cy="447.70464"
     inkscape:document-units="px"
     inkscape:current-layer="layer1"
     showgrid="false"
     inkscape:window-width="1920"
     inkscape:window-height="1056"
     inkscape:window-x="291"
     inkscape:window-y="24"
     inkscape:window-maximized="1" />
  <metadata
     id="metadata7">
    <rdf:RDF>
      <cc:Work
         rdf:about="">
        <dc:format>image/svg+xml</dc:format>
        <dc:type
           rdf:resource="http://purl.org/dc/dcmitype/StillImage" />
        <dc:title></dc:title>
      </cc:Work>
    </rdf:RDF>
  </metadata>
  <g
     inkscape:label="Laag 1"
     inkscape:groupmode="layer"
     id="layer1">
    <circle
       style="color:#000000;clip-rule:nonzero;display:inline;overflow:visible;visibility:visible;opacity:1;isolation:auto;mix-blend-mode:normal;color-interpolation:sRGB;color-interpolation-filters:linearRGB;solid-color:#000000;solid-opacity:1;fill:#00ff00;fill-opacity:0.58823529;fill-rule:evenodd;stroke:none;stroke-width:0.95866513;stroke-linecap:butt;stroke-linejoin:miter;stroke-miterlimit:4;stroke-dasharray:none;stroke-dashoffset:0;stroke-opacity:1;color-rendering:auto;image-rendering:auto;shape-rendering:auto;text-rendering:auto;enable-background:accumulate"
       id="path4136"
       cx="352.54324"
       cy="212.92543"
       r="39.39595" />
    <circle
       style="color:#000000;clip-rule:nonzero;display:inline;overflow:visible;visibility:visible;opacity:1;isolation:auto;mix-blend-mode:normal;color-interpolation:sRGB;color-interpolation-filters:linearRGB;solid-color:#000000;solid-opacity:1;fill:#80b3ff;fill-opacity:0.58823529;fill-rule:evenodd;stroke:none;stroke-width:0.95866513;stroke-linecap:butt;stroke-linejoin:miter;stroke-miterlimit:4;stroke-dasharray:none;stroke-dashoffset:0;stroke-opacity:1;color-rendering:auto;image-rendering:auto;shape-rendering:auto;text-rendering:auto;enable-background:accumulate"
       id="path4136-3"
       cx="232.33508"
       cy="385.66153"
       r="39.39595" />
    <circle
       style="color:#000000;clip-rule:nonzero;display:inline;overflow:visible;visibility:visible;opacity:1;isolation:auto;mix-blend-mode:normal;color-interpolation:sRGB;color-interpolation-filters:linearRGB;solid-color:#000000;solid-opacity:1;fill:#d45500;fill-opacity:0.58823529;fill-rule:evenodd;stroke:none;stroke-width:0.95866513;stroke-linecap:butt;stroke-linejoin:miter;stroke-miterlimit:4;stroke-dasharray:none;stroke-dashoffset:0;stroke-opacity:1;color-rendering:auto;image-rendering:auto;shape-rendering:auto;text-rendering:auto;enable-background:accumulate"
       id="path4136-6"
       cx="449.51788"
       cy="385.66153"
       r="39.39595" />
    <path
       style="fill:none;fill-rule:evenodd;stroke:#000000;stroke-width:1px;stroke-linecap:butt;stroke-linejoin:miter;stroke-opacity:1"
       d="m 401.03056,390.20721 c -2.0203,0 -4.04061,0 -6.06091,0 -0.8418,0 -1.68777,-0.0838 -2.52539,0 -0.8542,0.0854 -1.68076,0.35151 -2.52538,0.50508 -1.00757,0.18319 -2.02626,0.30423 -3.03045,0.50507 -1.52205,0.30441 -3.01462,0.75498 -4.54569,1.01016 -1.50381,0.25063 -3.038,0.27892 -4.54569,0.50507 -3.72296,0.55845 -7.38158,1.51166 -11.11168,2.02031 -14.86083,2.02647 3.79497,-1.19507 -11.11167,1.51523 -1.414,0.25709 -10.39866,1.91879 -11.61676,2.0203 -2.01332,0.16778 -4.04061,0 -6.06091,0 -2.18867,0 -4.37733,0 -6.56599,0 -1.85195,0 -3.7115,-0.16767 -5.55584,0 -1.87458,0.17042 -3.68288,0.82286 -5.55584,1.01015 -1.50771,0.15077 -3.03046,0 -4.54569,0 -4.20897,0 -8.41794,0 -12.62691,0 -1.01015,0 -2.0203,0 -3.03045,0 -0.8418,0 -1.68874,-0.093 -2.52539,0 -0.68991,0.0767 -1.33962,0.36894 -2.0203,0.50508 -0.54003,0.10801 -1.90275,0 -2.52538,0 -0.16836,0 -0.33672,0 -0.50508,0 -0.16836,0 -0.38603,0.11905 -0.50507,0 -0.11905,-0.11905 0.11904,-0.38603 0,-0.50508 -0.2381,-0.23809 -0.77206,0.2381 -1.01016,0 -0.11904,-0.11904 0.11905,-0.38602 0,-0.50507 -0.25253,-0.25254 -1.26269,0.25254 -1.51523,0 -0.11904,-0.11905 0.11905,-0.38603 0,-0.50508 -0.23809,-0.23809 -0.70898,0.15059 -1.01015,0 -0.21296,-0.10648 -0.29212,-0.3986 -0.50507,-0.50508 -0.15059,-0.0753 -0.34536,0.0532 -0.50508,0 -0.35714,-0.11904 -0.64493,-0.41377 -1.01015,-0.50507 -0.32667,-0.0817 -0.69072,0.10648 -1.01016,0 -0.22587,-0.0753 -0.30696,-0.37301 -0.50507,-0.50508 -0.8368,-0.55786 -1.14713,-0.50507 -2.02031,-0.50507 -1.18449,0 0.2381,0.11904 -1.01015,-0.50508 -0.15058,-0.0753 -0.35449,0.0753 -0.50508,0 -0.42591,-0.21296 -0.55839,-0.85957 -1.01015,-1.01015 -0.31944,-0.10648 -0.69071,0.10648 -1.01015,0 -0.45176,-0.15059 -0.5584,-0.85957 -1.01015,-1.01016 -0.31944,-0.10647 -0.69072,0.10648 -1.01016,0 -0.14793,-0.0493 -0.84179,-0.67343 -0.50507,-1.01015 0.10325,-0.10325 1.31497,0.10013 1.51523,0 0.21296,-0.10648 0.2792,-0.42978 0.50507,-0.50507 0.47916,-0.15972 1.01016,0 1.51523,0 1.34687,0 2.69374,0 4.04061,0 0.67344,0 1.35364,0.0952 2.02031,0 0.52704,-0.0753 0.98818,-0.42979 1.51523,-0.50508 0.66666,-0.0952 1.34687,0 2.0203,0 0.67344,0 1.34687,0 2.02031,0 0.50507,0 1.01702,0.083 1.51522,0 0.52516,-0.0875 0.99008,-0.41755 1.51523,-0.50508 0.83034,-0.13839 1.68359,0 2.52538,0 0.53992,0 2.98858,-0.10939 3.53554,0 0.52206,0.10442 0.99317,0.40067 1.51523,0.50508 0.33018,0.066 0.67343,0 1.01015,0 0.16836,0 0.35449,-0.0753 0.50508,0 0.21296,0.10648 0.29211,0.3986 0.50507,0.50508 0.15059,0.0753 0.35449,-0.0753 0.50508,0 0.21296,0.10648 0.29212,0.39859 0.50508,0.50507 0.13058,0.0653 2.67245,0 3.03045,0 0.16836,0 0.38603,-0.11905 0.50508,0 0.11905,0.11905 0,0.33672 0,0.50508 0,0.88154 0.0753,0.35449 -0.50508,1.51523 -0.16836,0.33671 -0.31139,0.68734 -0.50507,1.01015 -0.62463,1.04104 -1.41797,1.97636 -2.02031,3.03046 -0.74711,1.30744 -1.34687,2.69374 -2.0203,4.04061 -0.33672,0.67343 -0.6366,1.36658 -1.01016,2.0203 -0.60233,1.0541 -1.47736,1.94458 -2.0203,3.03046 -0.2381,0.47619 -0.30735,1.02091 -0.50508,1.51523 -0.27963,0.69907 -0.67343,1.34687 -1.01015,2.0203 -0.33672,0.67344 -0.59251,1.39384 -1.01015,2.02031 -0.13207,0.19811 -0.3986,0.29212 -0.50508,0.50508 -0.0753,0.15058 0,0.33671 0,0.50507 0,0.26412 0.0664,1.8875 0,2.02031 -0.10648,0.21296 -0.29212,0.39859 -0.50508,0.50507 -0.0418,0.0209 -1.45024,0.0217 -1.51522,0 -0.35715,-0.11904 -0.65301,-0.38603 -1.01016,-0.50507 -0.15972,-0.0532 -0.35449,0.0753 -0.50507,0 -0.21296,-0.10648 -0.30697,-0.37301 -0.50508,-0.50508 -0.31323,-0.20882 -0.70898,-0.2792 -1.01015,-0.50508 -0.38095,-0.28571 -0.67344,-0.67343 -1.01015,-1.01015 -0.50508,-0.50507 -1.01016,-1.01015 -1.51523,-1.51523 -0.33672,-0.33671 -0.71268,-0.63831 -1.01016,-1.01015 -0.75841,-0.94801 -1.26189,-2.08244 -2.0203,-3.03046 -0.59495,-0.74368 -1.44888,-1.2584 -2.02031,-2.0203 -0.22587,-0.30117 -0.33671,-0.67344 -0.50507,-1.01015 -0.16836,-0.33672 -0.29625,-0.69692 -0.50508,-1.01016 -0.13207,-0.1981 -0.3986,-0.29211 -0.50507,-0.50507 -0.15059,-0.30117 0.15058,-0.70899 0,-1.01016 -0.10648,-0.21295 -0.42979,-0.2792 -0.50508,-0.50507 -0.10648,-0.31944 0,-0.67344 0,-1.01015 0,-0.16836 0.0753,-0.3545 0,-0.50508 -0.10648,-0.21296 -0.3986,-0.29212 -0.50508,-0.50508 -0.0769,-0.15371 0,-1.28776 0,-1.51523"
       id="path4163"
       inkscape:connector-curvature="0" />
    <path
       style="fill:none;fill-rule:evenodd;stroke:#000000;stroke-width:1px;stroke-linecap:butt;stroke-linejoin:miter;stroke-opacity:1"
       d="m 263.64981,328.08283 c 2.01704,-2.22598 3.75702,-4.67264 5.55584,-7.07107 0.50508,-0.67343 0.96091,-1.38679 1.51523,-2.0203 0.62715,-0.71674 1.34687,-1.34687 2.02031,-2.02031 1.17851,-1.17851 2.39833,-2.31711 3.53553,-3.53553 1.22113,-1.30836 2.27004,-2.77512 3.53554,-4.04061 1.26549,-1.2655 2.77511,-2.27004 4.04061,-3.53554 1.26549,-1.26549 2.27004,-2.77511 3.53553,-4.04061 1.26549,-1.26549 2.73497,-2.3115 4.04061,-3.53553 2.77919,-2.60549 5.38748,-5.38748 8.08122,-8.08122 1.17851,-1.17851 2.45896,-2.26322 3.53553,-3.53554 2.73757,-3.2353 1.40935,-2.31361 3.03046,-5.55583 0.10648,-0.21296 0.37301,-0.30697 0.50508,-0.50508 1.22311,-1.83467 -0.14791,-0.35717 1.01015,-1.51523 0.16836,-0.16836 0.33672,-0.33672 0.50508,-0.50508 0.16836,-0.16835 0.39859,-0.29211 0.50507,-0.50507 0.20203,-0.40406 -0.20203,-1.11117 0,-1.51523 0.10648,-0.21296 0.3986,-0.29212 0.50508,-0.50508 0.15872,-0.31745 -0.15873,-1.70285 0,-2.0203 0.10648,-0.21296 0.3986,-0.29212 0.50508,-0.50508 0.15058,-0.30117 -0.15059,-0.70898 0,-1.01015 0.10647,-0.21296 0.39859,-0.29212 0.50507,-0.50508 0.0753,-0.15058 0,-0.33671 0,-0.50507 0.16836,-0.33672 0.29625,-0.69692 0.50508,-1.01016 0.13207,-0.1981 0.42978,-0.2792 0.50507,-0.50507 0.10648,-0.31944 -0.0817,-0.68349 0,-1.01015 0.0913,-0.36523 0.38603,-0.65301 0.50508,-1.01016 0.0532,-0.15972 -0.0532,-0.34535 0,-0.50507 0.65566,-1.96699 0.50508,-0.0473 0.50508,-2.02031 0,-0.33672 0,-0.67343 0,-1.01015 0,-0.33672 -0.10648,-0.69072 0,-1.01015 0.0753,-0.22588 0.39859,-0.29212 0.50507,-0.50508 0.0518,-0.10361 0.0712,-1.444 0,-1.51523 -0.11904,-0.11905 -0.33671,0 -0.50507,0 -0.16836,0 -0.35449,-0.0753 -0.50508,0 -0.21296,0.10648 -0.30697,0.37301 -0.50508,0.50508 -0.31323,0.20882 -0.67343,0.33672 -1.01015,0.50507 -0.33672,0.16836 -0.641,0.43125 -1.01015,0.50508 -0.49527,0.099 -1.01996,-0.0991 -1.51523,0 -0.36915,0.0738 -0.66062,0.36526 -1.01015,0.50508 -0.49432,0.19772 -1.01015,0.33671 -1.51523,0.50507 -1.01015,0.33672 -2.00663,0.71763 -3.03046,1.01016 -1.84437,0.52696 -3.76667,0.79956 -5.55584,1.51522 -0.69907,0.27963 -1.34687,0.67344 -2.0203,1.01016 -0.33672,0.16836 -0.65301,0.38603 -1.01016,0.50507 -0.15971,0.0532 -0.35449,-0.0753 -0.50507,0 -0.21296,0.10648 -0.29212,0.3986 -0.50508,0.50508 -0.15058,0.0753 -0.38603,-0.11905 -0.50507,0 -0.25254,0.25254 0.25253,1.26269 0,1.51523 -0.11905,0.11905 -0.38603,-0.11905 -0.50508,0 -0.2381,0.23809 0.10648,0.69071 0,1.01015 -0.11905,0.35714 -0.41377,0.64493 -0.50508,1.01015 -0.0817,0.32667 0,0.67344 0,1.01016 0,0.33671 0,0.67343 0,1.01015 0,1.01015 0,2.0203 0,3.03046 0,1.51522 0,3.03045 0,4.54568 0,0.19967 -0.10785,2.30967 0,2.52538 0.49575,0.99149 0.95985,0.22739 1.51523,0.50508 1.54026,0.77013 -0.92375,0.40041 1.51523,1.01015 0.32666,0.0817 0.67997,-0.066 1.01015,0 1.04412,0.20883 2.00664,0.71763 3.03046,1.01015 1.83277,0.52365 3.79331,0.75986 5.55584,1.51523 0.69205,0.29659 1.31532,0.74579 2.02031,1.01016 0.64996,0.24373 1.35285,0.31437 2.0203,0.50507 0.51191,0.14626 1.01015,0.33672 1.51523,0.50508 0.50508,0.16836 1.02091,0.30735 1.51523,0.50508 0.34953,0.13981 0.641,0.43124 1.01015,0.50507 0.49527,0.0991 1.01996,-0.0991 1.51523,0 0.36915,0.0738 0.66062,0.36526 1.01015,0.50508 0.98864,0.39545 2.02031,0.67343 3.03046,1.01015 0.50508,0.16836 1.01015,0.33672 1.51523,0.50508 0.50507,0.16836 0.98818,0.42978 1.51523,0.50507 0.66666,0.0952 1.35364,-0.0952 2.0203,0 0.52705,0.0753 1.01015,0.33672 1.51523,0.50508 0.50508,0.16836 1.01015,0.33672 1.51523,0.50508 0.50508,0.16835 0.99008,0.41755 1.51523,0.50507 0.4982,0.083 1.01015,0 1.51523,0 2.55949,0 -0.60234,-0.15058 2.0203,0.50508 0.49,0.1225 1.03607,-0.15972 1.51523,0 0.35714,0.11905 0.65301,0.38603 1.01015,0.50507 0.28497,0.095 1.18334,0 1.51523,0 0.16836,0 0.38603,0.11905 0.50508,0 0.11905,-0.11904 0,-0.33671 0,-0.50507 0,-1.01131 0.0753,-0.0643 -0.50508,-1.51523 -0.39545,-0.98864 -0.67343,-2.02031 -1.01015,-3.03046 -0.16836,-0.50507 -0.26698,-1.03904 -0.50508,-1.51523 -0.27147,-0.54294 -0.67343,-1.01015 -1.01015,-1.51523 -2.38062,-3.57093 0.60703,0.84984 -2.52538,-3.53553 -0.70565,-0.98792 -1.34687,-2.02031 -2.02031,-3.03046 -0.33671,-0.50507 -0.58092,-1.08599 -1.01015,-1.51523 -0.42923,-0.42923 -1.08599,-0.58092 -1.51523,-1.01015 -0.42923,-0.42923 -0.63094,-1.04122 -1.01015,-1.51523 -0.29747,-0.37184 -0.71268,-0.63831 -1.01015,-1.01015 -0.37921,-0.47401 -0.63095,-1.04122 -1.01015,-1.51523 -0.29748,-0.37184 -0.67344,-0.67343 -1.01016,-1.01015 -0.84179,-0.8418 -1.68358,-1.68359 -2.52538,-2.52538 -0.16836,-0.16836 -0.33672,-0.33672 -0.50507,-0.50508 -0.16836,-0.16836 -0.3986,-0.29212 -0.50508,-0.50508 -0.0753,-0.15058 0.0753,-0.35449 0,-0.50507 -0.62412,-1.24825 -0.50508,0.17434 -0.50508,-1.01015"
       id="path4165"
       inkscape:connector-curvature="0" />
    <path
       style="fill:none;fill-rule:evenodd;stroke:#000000;stroke-width:1px;stroke-linecap:butt;stroke-linejoin:miter;stroke-opacity:1"
       d="m 383.85797,249.29093 c 0.67343,0.67344 1.4005,1.2972 2.0203,2.02031 0.7901,0.92177 1.31465,2.04254 2.02031,3.03045 0.97856,1.37 2.09657,2.63978 3.03046,4.04061 0.54454,0.81682 0.97068,1.70857 1.51522,2.52539 4.63052,6.94577 -2.83876,-5.14542 4.04061,5.55583 0.734,1.14178 1.28631,2.39376 2.02031,3.53554 1.1113,1.72869 2.39558,3.34083 3.53553,5.05076 0.73895,1.10842 1.5931,2.25391 2.02031,3.53553 0.27147,0.81442 0.2336,1.71097 0.50507,2.52539 0.2381,0.71428 0.71357,1.32826 1.01016,2.0203 0.28732,0.67042 0.94607,2.95886 1.01015,3.53553 0.093,0.83665 0,1.68359 0,2.52539 0.33672,1.34687 0.82667,2.66446 1.01015,4.04061 0.15576,1.16817 -0.16666,2.36886 0,3.53553 0.17334,1.21335 0.75334,2.33707 1.01015,3.53553 0.24944,1.16405 0.33672,2.35703 0.50508,3.53554 0.33672,1.17851 0.71288,2.34646 1.01015,3.53553 0.20821,0.83284 0.38367,1.67555 0.50508,2.52538 0.0476,0.33334 -0.0817,0.68349 0,1.01016 0.0913,0.36522 0.41377,0.64493 0.50508,1.01015 0.0817,0.32666 -0.10648,0.69071 0,1.01015 0.0753,0.22588 0.39859,0.29212 0.50507,0.50508 0.15059,0.30117 -0.10648,0.69071 0,1.01015 1.17242,2.34484 0.0429,-0.29072 0.50508,2.02031 0.10441,0.52205 0.33672,1.01015 0.50507,1.51522 0.33672,1.01016 0.67344,2.02031 1.01016,3.03046 0.16836,0.50508 0.40066,0.99317 0.50507,1.51523 0.0827,0.41348 -0.12955,2.26627 0,2.52538 0.10648,0.21296 0.3986,0.29212 0.50508,0.50508 0.0753,0.15058 -0.0532,0.34536 0,0.50507 0.11905,0.35715 0.41377,0.64494 0.50508,1.01016 0.0817,0.32666 -0.10648,0.69071 0,1.01015 0.15058,0.45175 0.74601,0.61394 1.01015,1.01015 0.41765,0.62647 0.67343,1.34687 1.01015,2.02031 0.33672,0.67343 0.73053,1.32123 1.01015,2.0203 0.39546,0.98864 0.6147,2.04182 1.01016,3.03046 0.27963,0.69907 0.67343,1.34687 1.01015,2.0203 0.16836,0.33672 0.41377,0.64494 0.50508,1.01016 0.20649,0.82599 -0.38412,1.07063 0.50507,1.51523 0.80812,0.40406 0.37039,-0.23571 0.50508,-0.50508 0.10648,-0.21296 0.373,-0.30697 0.50507,-0.50508 0.59225,-0.88837 0.59947,-1.49867 1.01016,-2.52538 0.89409,-2.23524 0.17259,0.40609 1.01015,-2.52538 1.2684,-4.43941 -0.20085,0.0975 1.01015,-3.53553 0.16836,-0.50508 0.33672,-1.01016 0.50508,-1.51523 0.16836,-0.50508 0.41755,-0.99008 0.50507,-1.51523 0.083,-0.4982 -0.083,-1.01703 0,-1.51523 0.17506,-1.05031 0.83511,-1.98015 1.01016,-3.03046 0.083,-0.4982 0,-1.01015 0,-1.51523 0,-0.50507 0,-1.01015 0,-1.51522 0,-1.17852 0,-2.35703 0,-3.53554 0,-0.33672 0,-0.67343 0,-1.01015 0,-0.16836 0.0532,-0.34536 0,-0.50508 -0.11905,-0.35714 -0.38603,-0.65301 -0.50508,-1.01015 -0.11135,-0.33406 0,-2.53429 0,-3.03046 0,-0.16836 0.0753,-0.35449 0,-0.50507 -0.10648,-0.21296 -0.3986,-0.29212 -0.50508,-0.50508 -0.0753,-0.15058 0.11905,-0.38603 0,-0.50508 -0.11904,-0.11904 -0.33671,0 -0.50507,0 -0.16836,0 -0.33672,0 -0.50508,0 -1.34687,0 -2.69374,0 -4.04061,0 -0.84179,0 -1.68873,-0.093 -2.52538,0 -0.68991,0.0767 -1.34267,0.3545 -2.0203,0.50508 -1.67605,0.37245 -3.39434,0.5584 -5.05077,1.01015 -1.02727,0.28017 -2.00161,0.7358 -3.03046,1.01015 -1.49978,0.39995 -3.03045,0.67344 -4.54568,1.01016 -1.51523,0.50507 -3.0134,1.06455 -4.54569,1.51523 -2.66381,0.78347 -5.44706,1.14225 -8.08122,2.0203 -1.21638,0.40546 -2.31915,1.10977 -3.53553,1.51523 -0.81441,0.27147 -1.69255,0.29687 -2.52538,0.50508 -4.20402,1.051 0.60968,-0.0349 -2.52539,1.01015 -0.62701,0.209 -0.5503,-0.41463 -1.01015,0.50508 -0.0215,0.043 -0.0215,1.97724 0,2.0203 0.10648,0.21296 0.3986,0.29212 0.50508,0.50508 0.0753,0.15058 -0.0753,0.35449 0,0.50507 0.10648,0.21296 0.33672,0.33672 0.50507,0.50508 0.33672,0.33672 0.61394,0.74601 1.01016,1.01015 0.62647,0.41765 1.34687,0.67344 2.0203,1.01015 1.28716,0.64358 2.65506,1.11936 4.04061,1.51523 0.66746,0.1907 1.35286,0.31438 2.02031,0.50508 0.51191,0.14626 1.00331,0.35881 1.51523,0.50508 1.3349,0.3814 2.7057,0.62875 4.04061,1.01015 0.51191,0.14626 0.99007,0.41755 1.51523,0.50507 1.37085,0.22848 3.17483,-0.22847 4.54568,0 0.52516,0.0875 1.00332,0.35882 1.51523,0.50508 0.66745,0.1907 1.34268,0.35449 2.02031,0.50508 0.83802,0.18622 1.68736,0.31885 2.52538,0.50507 0.67763,0.15059 1.34267,0.35449 2.0203,0.50508 2.09388,0.46531 4.02452,0.83643 6.06092,1.51523 0.82137,0.27379 1.78221,0.5147 2.52538,1.01015 1.67513,1.67513 -0.47619,-0.23809 1.01015,0.50508 1.24825,0.62412 -0.17434,0.50507 1.01015,0.50507"
       id="path4167"
       inkscape:connector-curvature="0" />
    <rect
       style="color:#000000;clip-rule:nonzero;display:inline;overflow:visible;visibility:visible;opacity:1;isolation:auto;mix-blend-mode:normal;color-interpolation:sRGB;color-interpolation-filters:linearRGB;solid-color:#000000;solid-opacity:1;fill:#00ff00;fill-opacity:0.58823529;fill-rule:evenodd;stroke:none;stroke-width:0.95866513;stroke-linecap:butt;stroke-linejoin:miter;stroke-miterlimit:4;stroke-dasharray:none;stroke-dashoffset:0;stroke-opacity:1;color-rendering:auto;image-rendering:auto;shape-rendering:auto;text-rendering:auto;enable-background:accumulate;filter-blend-mode:normal;filter-gaussianBlur-deviation:0"
       id="rect4169"
       width="25.253813"
       height="41.416256"
       x="243.44676"
       y="396.26813" />
    <rect
       style="color:#000000;clip-rule:nonzero;display:inline;overflow:visible;visibility:visible;opacity:1;isolation:auto;mix-blend-mode:normal;color-interpolation:sRGB;color-interpolation-filters:linearRGB;solid-color:#000000;solid-opacity:1;fill:#d45500;fill-opacity:0.58823529;fill-rule:evenodd;stroke:none;stroke-width:0.95866513;stroke-linecap:butt;stroke-linejoin:miter;stroke-miterlimit:4;stroke-dasharray:none;stroke-dashoffset:0;stroke-opacity:1;color-rendering:auto;image-rendering:auto;shape-rendering:auto;text-rendering:auto;enable-background:accumulate;filter-blend-mode:normal;filter-gaussianBlur-deviation:0"
       id="rect4169-5"
       width="25.253813"
       height="41.416256"
       x="360.62445"
       y="242.72496" />
    <rect
       style="color:#000000;clip-rule:nonzero;display:inline;overflow:visible;visibility:visible;opacity:1;isolation:auto;mix-blend-mode:normal;color-interpolation:sRGB;color-interpolation-filters:linearRGB;solid-color:#000000;solid-opacity:1;fill:#80b3ff;fill-opacity:0.58823529;fill-rule:evenodd;stroke:none;stroke-width:0.95866513;stroke-linecap:butt;stroke-linejoin:miter;stroke-miterlimit:4;stroke-dasharray:none;stroke-dashoffset:0;stroke-opacity:1;color-rendering:auto;image-rendering:auto;shape-rendering:auto;text-rendering:auto;enable-background:accumulate;filter-blend-mode:normal;filter-gaussianBlur-deviation:0"
       id="rect4169-5-3"
       width="25.253813"
       height="41.416256"
       x="469.21588"
       y="393.74274" />
    <circle
       style="color:#000000;clip-rule:nonzero;display:inline;overflow:visible;visibility:visible;opacity:1;isolation:auto;mix-blend-mode:normal;color-interpolation:sRGB;color-interpolation-filters:linearRGB;solid-color:#000000;solid-opacity:1;fill:#00ff00;fill-opacity:0.58823529;fill-rule:evenodd;stroke:none;stroke-width:0.95866513;stroke-linecap:butt;stroke-linejoin:miter;stroke-miterlimit:4;stroke-dasharray:none;stroke-dashoffset:0;stroke-opacity:1;color-rendering:auto;image-rendering:auto;shape-rendering:auto;text-rendering:auto;enable-background:accumulate"
       id="path4136-2"
       cx="331.69598"
       cy="571.10925"
       r="39.39595" />
    <circle
       style="color:#000000;clip-rule:nonzero;display:inline;overflow:visible;visibility:visible;opacity:1;isolation:auto;mix-blend-mode:normal;color-interpolation:sRGB;color-interpolation-filters:linearRGB;solid-color:#000000;solid-opacity:1;fill:#80b3ff;fill-opacity:0.58823529;fill-rule:evenodd;stroke:none;stroke-width:0.95866513;stroke-linecap:butt;stroke-linejoin:miter;stroke-miterlimit:4;stroke-dasharray:none;stroke-dashoffset:0;stroke-opacity:1;color-rendering:auto;image-rendering:auto;shape-rendering:auto;text-rendering:auto;enable-background:accumulate"
       id="path4136-3-9"
       cx="211.48781"
       cy="743.84534"
       r="39.39595" />
    <circle
       style="color:#000000;clip-rule:nonzero;display:inline;overflow:visible;visibility:visible;opacity:1;isolation:auto;mix-blend-mode:normal;color-interpolation:sRGB;color-interpolation-filters:linearRGB;solid-color:#000000;solid-opacity:1;fill:#d45500;fill-opacity:0.58823529;fill-rule:evenodd;stroke:none;stroke-width:0.95866513;stroke-linecap:butt;stroke-linejoin:miter;stroke-miterlimit:4;stroke-dasharray:none;stroke-dashoffset:0;stroke-opacity:1;color-rendering:auto;image-rendering:auto;shape-rendering:auto;text-rendering:auto;enable-background:accumulate"
       id="path4136-6-1"
       cx="428.67062"
       cy="743.84534"
       r="39.39595" />
    <path
       style="fill:none;fill-rule:evenodd;stroke:#000000;stroke-width:1px;stroke-linecap:butt;stroke-linejoin:miter;stroke-opacity:1"
       d="m 380.1833,748.39105 c -2.0203,0 -4.04061,0 -6.06091,0 -0.8418,0 -1.68777,-0.0838 -2.52539,0 -0.8542,0.0854 -1.68076,0.35151 -2.52538,0.50508 -1.00757,0.18319 -2.02626,0.30423 -3.03045,0.50507 -1.52205,0.30441 -3.01462,0.75498 -4.54569,1.01016 -1.50381,0.25063 -3.038,0.27892 -4.54569,0.50507 -3.72296,0.55845 -7.38158,1.51166 -11.11168,2.02031 -14.86083,2.02647 3.79497,-1.19507 -11.11167,1.51523 -1.414,0.25709 -10.39866,1.91879 -11.61676,2.0203 -2.01332,0.16778 -4.04061,0 -6.06091,0 -2.18867,0 -4.37733,0 -6.56599,0 -1.85195,0 -3.7115,-0.16767 -5.55584,0 -1.87458,0.17042 -3.68288,0.82286 -5.55584,1.01015 -1.50771,0.15077 -3.03046,0 -4.54569,0 -4.20897,0 -8.41794,0 -12.62691,0 -1.01015,0 -2.0203,0 -3.03045,0 -0.8418,0 -1.68874,-0.093 -2.52539,0 -0.68991,0.0767 -1.33962,0.36894 -2.0203,0.50508 -0.54003,0.10801 -1.90275,0 -2.52538,0 -0.16836,0 -0.33672,0 -0.50508,0 -0.16836,0 -0.38603,0.11905 -0.50507,0 -0.11905,-0.11905 0.11904,-0.38603 0,-0.50508 -0.2381,-0.23809 -0.77206,0.2381 -1.01016,0 -0.11904,-0.11904 0.11905,-0.38602 0,-0.50507 -0.25253,-0.25254 -1.26269,0.25254 -1.51523,0 -0.11904,-0.11905 0.11905,-0.38603 0,-0.50508 -0.23809,-0.23809 -0.70898,0.15059 -1.01015,0 -0.21296,-0.10648 -0.29212,-0.3986 -0.50507,-0.50508 -0.15059,-0.0753 -0.34536,0.0532 -0.50508,0 -0.35714,-0.11904 -0.64493,-0.41377 -1.01015,-0.50507 -0.32667,-0.0817 -0.69072,0.10648 -1.01016,0 -0.22587,-0.0753 -0.30696,-0.37301 -0.50507,-0.50508 -0.8368,-0.55786 -1.14713,-0.50507 -2.02031,-0.50507 -1.18449,0 0.2381,0.11904 -1.01015,-0.50508 -0.15058,-0.0753 -0.35449,0.0753 -0.50508,0 -0.42591,-0.21296 -0.55839,-0.85957 -1.01015,-1.01015 -0.31944,-0.10648 -0.69071,0.10648 -1.01015,0 -0.45176,-0.15059 -0.5584,-0.85957 -1.01015,-1.01016 -0.31944,-0.10647 -0.69072,0.10648 -1.01016,0 -0.14793,-0.0493 -0.84179,-0.67343 -0.50507,-1.01015 0.10325,-0.10325 1.31497,0.10013 1.51523,0 0.21296,-0.10648 0.2792,-0.42978 0.50507,-0.50507 0.47916,-0.15972 1.01016,0 1.51523,0 1.34687,0 2.69374,0 4.04061,0 0.67344,0 1.35364,0.0952 2.02031,0 0.52704,-0.0753 0.98818,-0.42979 1.51523,-0.50508 0.66666,-0.0952 1.34687,0 2.0203,0 0.67344,0 1.34687,0 2.02031,0 0.50507,0 1.01702,0.083 1.51522,0 0.52516,-0.0875 0.99008,-0.41755 1.51523,-0.50508 0.83034,-0.13839 1.68359,0 2.52538,0 0.53992,0 2.98858,-0.10939 3.53554,0 0.52206,0.10442 0.99317,0.40067 1.51523,0.50508 0.33018,0.066 0.67343,0 1.01015,0 0.16836,0 0.35449,-0.0753 0.50508,0 0.21296,0.10648 0.29211,0.3986 0.50507,0.50508 0.15059,0.0753 0.35449,-0.0753 0.50508,0 0.21296,0.10648 0.29212,0.39859 0.50508,0.50507 0.13058,0.0653 2.67245,0 3.03045,0 0.16836,0 0.38603,-0.11905 0.50508,0 0.11905,0.11905 0,0.33672 0,0.50508 0,0.88154 0.0753,0.35449 -0.50508,1.51523 -0.16836,0.33671 -0.31139,0.68734 -0.50507,1.01015 -0.62463,1.04104 -1.41797,1.97636 -2.02031,3.03046 -0.74711,1.30744 -1.34687,2.69374 -2.0203,4.04061 -0.33672,0.67343 -0.6366,1.36658 -1.01016,2.0203 -0.60233,1.0541 -1.47736,1.94458 -2.0203,3.03046 -0.2381,0.47619 -0.30735,1.02091 -0.50508,1.51523 -0.27963,0.69907 -0.67343,1.34687 -1.01015,2.0203 -0.33672,0.67344 -0.59251,1.39384 -1.01015,2.02031 -0.13207,0.19811 -0.3986,0.29212 -0.50508,0.50508 -0.0753,0.15058 0,0.33671 0,0.50507 0,0.26412 0.0664,1.8875 0,2.02031 -0.10648,0.21296 -0.29212,0.39859 -0.50508,0.50507 -0.0418,0.0209 -1.45024,0.0217 -1.51522,0 -0.35715,-0.11904 -0.65301,-0.38603 -1.01016,-0.50507 -0.15972,-0.0532 -0.35449,0.0753 -0.50507,0 -0.21296,-0.10648 -0.30697,-0.37301 -0.50508,-0.50508 -0.31323,-0.20882 -0.70898,-0.2792 -1.01015,-0.50508 -0.38095,-0.28571 -0.67344,-0.67343 -1.01015,-1.01015 -0.50508,-0.50507 -1.01016,-1.01015 -1.51523,-1.51523 -0.33672,-0.33671 -0.71268,-0.63831 -1.01016,-1.01015 -0.75841,-0.94801 -1.26189,-2.08244 -2.0203,-3.03046 -0.59495,-0.74368 -1.44888,-1.2584 -2.02031,-2.0203 -0.22587,-0.30117 -0.33671,-0.67344 -0.50507,-1.01015 -0.16836,-0.33672 -0.29625,-0.69692 -0.50508,-1.01016 -0.13207,-0.1981 -0.3986,-0.29211 -0.50507,-0.50507 -0.15059,-0.30117 0.15058,-0.70899 0,-1.01016 -0.10648,-0.21295 -0.42979,-0.2792 -0.50508,-0.50507 -0.10648,-0.31944 0,-0.67344 0,-1.01015 0,-0.16836 0.0753,-0.3545 0,-0.50508 -0.10648,-0.21296 -0.3986,-0.29212 -0.50508,-0.50508 -0.0769,-0.15371 0,-1.28776 0,-1.51523"
       id="path4163-2"
       inkscape:connector-curvature="0" />
    <path
       style="fill:none;fill-rule:evenodd;stroke:#000000;stroke-width:1px;stroke-linecap:butt;stroke-linejoin:miter;stroke-opacity:1"
       d="m 242.80255,686.26667 c 2.01704,-2.22598 3.75702,-4.67264 5.55584,-7.07107 0.50508,-0.67343 0.96091,-1.38679 1.51523,-2.0203 0.62715,-0.71674 1.34687,-1.34687 2.02031,-2.02031 1.17851,-1.17851 2.39833,-2.31711 3.53553,-3.53553 1.22113,-1.30836 2.27004,-2.77512 3.53554,-4.04061 1.26549,-1.2655 2.77511,-2.27004 4.04061,-3.53554 1.26549,-1.26549 2.27004,-2.77511 3.53553,-4.04061 1.26549,-1.26549 2.73497,-2.3115 4.04061,-3.53553 2.77919,-2.60549 5.38748,-5.38748 8.08122,-8.08122 1.17851,-1.17851 2.45896,-2.26322 3.53553,-3.53554 2.73757,-3.2353 1.40935,-2.31361 3.03046,-5.55583 0.10648,-0.21296 0.37301,-0.30697 0.50508,-0.50508 1.22311,-1.83467 -0.14791,-0.35717 1.01015,-1.51523 0.16836,-0.16836 0.33672,-0.33672 0.50508,-0.50508 0.16836,-0.16835 0.39859,-0.29211 0.50507,-0.50507 0.20203,-0.40406 -0.20203,-1.11117 0,-1.51523 0.10648,-0.21296 0.3986,-0.29212 0.50508,-0.50508 0.15872,-0.31745 -0.15873,-1.70285 0,-2.0203 0.10648,-0.21296 0.3986,-0.29212 0.50508,-0.50508 0.15058,-0.30117 -0.15059,-0.70898 0,-1.01015 0.10647,-0.21296 0.39859,-0.29212 0.50507,-0.50508 0.0753,-0.15058 0,-0.33671 0,-0.50507 0.16836,-0.33672 0.29625,-0.69692 0.50508,-1.01016 0.13207,-0.1981 0.42978,-0.2792 0.50507,-0.50507 0.10648,-0.31944 -0.0817,-0.68349 0,-1.01015 0.0913,-0.36523 0.38603,-0.65301 0.50508,-1.01016 0.0532,-0.15972 -0.0532,-0.34535 0,-0.50507 0.65566,-1.96699 0.50508,-0.0473 0.50508,-2.02031 0,-0.33672 0,-0.67343 0,-1.01015 0,-0.33672 -0.10648,-0.69072 0,-1.01015 0.0753,-0.22588 0.39859,-0.29212 0.50507,-0.50508 0.0518,-0.10361 0.0712,-1.444 0,-1.51523 -0.11904,-0.11905 -0.33671,0 -0.50507,0 -0.16836,0 -0.35449,-0.0753 -0.50508,0 -0.21296,0.10648 -0.30697,0.37301 -0.50508,0.50508 -0.31323,0.20882 -0.67343,0.33672 -1.01015,0.50507 -0.33672,0.16836 -0.641,0.43125 -1.01015,0.50508 -0.49527,0.099 -1.01996,-0.0991 -1.51523,0 -0.36915,0.0738 -0.66062,0.36526 -1.01015,0.50508 -0.49432,0.19772 -1.01015,0.33671 -1.51523,0.50507 -1.01015,0.33672 -2.00663,0.71763 -3.03046,1.01016 -1.84437,0.52696 -3.76667,0.79956 -5.55584,1.51522 -0.69907,0.27963 -1.34687,0.67344 -2.0203,1.01016 -0.33672,0.16836 -0.65301,0.38603 -1.01016,0.50507 -0.15971,0.0532 -0.35449,-0.0753 -0.50507,0 -0.21296,0.10648 -0.29212,0.3986 -0.50508,0.50508 -0.15058,0.0753 -0.38603,-0.11905 -0.50507,0 -0.25254,0.25254 0.25253,1.26269 0,1.51523 -0.11905,0.11905 -0.38603,-0.11905 -0.50508,0 -0.2381,0.23809 0.10648,0.69071 0,1.01015 -0.11905,0.35714 -0.41377,0.64493 -0.50508,1.01015 -0.0817,0.32667 0,0.67344 0,1.01016 0,0.33671 0,0.67343 0,1.01015 0,1.01015 0,2.0203 0,3.03046 0,1.51522 0,3.03045 0,4.54568 0,0.19967 -0.10785,2.30967 0,2.52538 0.49575,0.99149 0.95985,0.22739 1.51523,0.50508 1.54026,0.77013 -0.92375,0.40041 1.51523,1.01015 0.32666,0.0817 0.67997,-0.066 1.01015,0 1.04412,0.20883 2.00664,0.71763 3.03046,1.01015 1.83277,0.52365 3.79331,0.75986 5.55584,1.51523 0.69205,0.29659 1.31532,0.74579 2.02031,1.01016 0.64996,0.24373 1.35285,0.31437 2.0203,0.50507 0.51191,0.14626 1.01015,0.33672 1.51523,0.50508 0.50508,0.16836 1.02091,0.30735 1.51523,0.50508 0.34953,0.13981 0.641,0.43124 1.01015,0.50507 0.49527,0.0991 1.01996,-0.0991 1.51523,0 0.36915,0.0738 0.66062,0.36526 1.01015,0.50508 0.98864,0.39545 2.02031,0.67343 3.03046,1.01015 0.50508,0.16836 1.01015,0.33672 1.51523,0.50508 0.50507,0.16836 0.98818,0.42978 1.51523,0.50507 0.66666,0.0952 1.35364,-0.0952 2.0203,0 0.52705,0.0753 1.01015,0.33672 1.51523,0.50508 0.50508,0.16836 1.01015,0.33672 1.51523,0.50508 0.50508,0.16835 0.99008,0.41755 1.51523,0.50507 0.4982,0.083 1.01015,0 1.51523,0 2.55949,0 -0.60234,-0.15058 2.0203,0.50508 0.49,0.1225 1.03607,-0.15972 1.51523,0 0.35714,0.11905 0.65301,0.38603 1.01015,0.50507 0.28497,0.095 1.18334,0 1.51523,0 0.16836,0 0.38603,0.11905 0.50508,0 0.11905,-0.11904 0,-0.33671 0,-0.50507 0,-1.01131 0.0753,-0.0643 -0.50508,-1.51523 -0.39545,-0.98864 -0.67343,-2.02031 -1.01015,-3.03046 -0.16836,-0.50507 -0.26698,-1.03904 -0.50508,-1.51523 -0.27147,-0.54294 -0.67343,-1.01015 -1.01015,-1.51523 -2.38062,-3.57093 0.60703,0.84984 -2.52538,-3.53553 -0.70565,-0.98792 -1.34687,-2.02031 -2.02031,-3.03046 -0.33671,-0.50507 -0.58092,-1.08599 -1.01015,-1.51523 -0.42923,-0.42923 -1.08599,-0.58092 -1.51523,-1.01015 -0.42923,-0.42923 -0.63094,-1.04122 -1.01015,-1.51523 -0.29747,-0.37184 -0.71268,-0.63831 -1.01015,-1.01015 -0.37921,-0.47401 -0.63095,-1.04122 -1.01015,-1.51523 -0.29748,-0.37184 -0.67344,-0.67343 -1.01016,-1.01015 -0.84179,-0.8418 -1.68358,-1.68359 -2.52538,-2.52538 -0.16836,-0.16836 -0.33672,-0.33672 -0.50507,-0.50508 -0.16836,-0.16836 -0.3986,-0.29212 -0.50508,-0.50508 -0.0753,-0.15058 0.0753,-0.35449 0,-0.50507 -0.62412,-1.24825 -0.50508,0.17434 -0.50508,-1.01015"
       id="path4165-7"
       inkscape:connector-curvature="0" />
    <path
       style="fill:none;fill-rule:evenodd;stroke:#000000;stroke-width:1px;stroke-linecap:butt;stroke-linejoin:miter;stroke-opacity:1"
       d="m 363.01071,607.47477 c 0.67343,0.67344 1.4005,1.2972 2.0203,2.02031 0.7901,0.92177 1.31465,2.04254 2.02031,3.03045 0.97856,1.37 2.09657,2.63978 3.03046,4.04061 0.54454,0.81682 0.97068,1.70857 1.51522,2.52539 4.63052,6.94577 -2.83876,-5.14542 4.04061,5.55583 0.734,1.14178 1.28631,2.39376 2.02031,3.53554 1.1113,1.72869 2.39558,3.34083 3.53553,5.05076 0.73895,1.10842 1.5931,2.25391 2.02031,3.53553 0.27147,0.81442 0.2336,1.71097 0.50507,2.52539 0.2381,0.71428 0.71357,1.32826 1.01016,2.0203 0.28732,0.67042 0.94607,2.95886 1.01015,3.53553 0.093,0.83665 0,1.68359 0,2.52539 0.33672,1.34687 0.82667,2.66446 1.01015,4.04061 0.15576,1.16817 -0.16666,2.36886 0,3.53553 0.17334,1.21335 0.75334,2.33707 1.01015,3.53553 0.24944,1.16405 0.33672,2.35703 0.50508,3.53554 0.33672,1.17851 0.71288,2.34646 1.01015,3.53553 0.20821,0.83284 0.38367,1.67555 0.50508,2.52538 0.0476,0.33334 -0.0817,0.68349 0,1.01016 0.0913,0.36522 0.41377,0.64493 0.50508,1.01015 0.0817,0.32666 -0.10648,0.69071 0,1.01015 0.0753,0.22588 0.39859,0.29212 0.50507,0.50508 0.15059,0.30117 -0.10648,0.69071 0,1.01015 1.17242,2.34484 0.0429,-0.29072 0.50508,2.02031 0.10441,0.52205 0.33672,1.01015 0.50507,1.51522 0.33672,1.01016 0.67344,2.02031 1.01016,3.03046 0.16836,0.50508 0.40066,0.99317 0.50507,1.51523 0.0827,0.41348 -0.12955,2.26627 0,2.52538 0.10648,0.21296 0.3986,0.29212 0.50508,0.50508 0.0753,0.15058 -0.0532,0.34536 0,0.50507 0.11905,0.35715 0.41377,0.64494 0.50508,1.01016 0.0817,0.32666 -0.10648,0.69071 0,1.01015 0.15058,0.45175 0.74601,0.61394 1.01015,1.01015 0.41765,0.62647 0.67343,1.34687 1.01015,2.02031 0.33672,0.67343 0.73053,1.32123 1.01015,2.0203 0.39546,0.98864 0.6147,2.04182 1.01016,3.03046 0.27963,0.69907 0.67343,1.34687 1.01015,2.0203 0.16836,0.33672 0.41377,0.64494 0.50508,1.01016 0.20649,0.82599 -0.38412,1.07063 0.50507,1.51523 0.80812,0.40406 0.37039,-0.23571 0.50508,-0.50508 0.10648,-0.21296 0.373,-0.30697 0.50507,-0.50508 0.59225,-0.88837 0.59947,-1.49867 1.01016,-2.52538 0.89409,-2.23524 0.17259,0.40609 1.01015,-2.52538 1.2684,-4.43941 -0.20085,0.0975 1.01015,-3.53553 0.16836,-0.50508 0.33672,-1.01016 0.50508,-1.51523 0.16836,-0.50508 0.41755,-0.99008 0.50507,-1.51523 0.083,-0.4982 -0.083,-1.01703 0,-1.51523 0.17506,-1.05031 0.83511,-1.98015 1.01016,-3.03046 0.083,-0.4982 0,-1.01015 0,-1.51523 0,-0.50507 0,-1.01015 0,-1.51522 0,-1.17852 0,-2.35703 0,-3.53554 0,-0.33672 0,-0.67343 0,-1.01015 0,-0.16836 0.0532,-0.34536 0,-0.50508 -0.11905,-0.35714 -0.38603,-0.65301 -0.50508,-1.01015 -0.11135,-0.33406 0,-2.53429 0,-3.03046 0,-0.16836 0.0753,-0.35449 0,-0.50507 -0.10648,-0.21296 -0.3986,-0.29212 -0.50508,-0.50508 -0.0753,-0.15058 0.11905,-0.38603 0,-0.50508 -0.11904,-0.11904 -0.33671,0 -0.50507,0 -0.16836,0 -0.33672,0 -0.50508,0 -1.34687,0 -2.69374,0 -4.04061,0 -0.84179,0 -1.68873,-0.093 -2.52538,0 -0.68991,0.0767 -1.34267,0.3545 -2.0203,0.50508 -1.67605,0.37245 -3.39434,0.5584 -5.05077,1.01015 -1.02727,0.28017 -2.00161,0.7358 -3.03046,1.01015 -1.49978,0.39995 -3.03045,0.67344 -4.54568,1.01016 -1.51523,0.50507 -3.0134,1.06455 -4.54569,1.51523 -2.66381,0.78347 -5.44706,1.14225 -8.08122,2.0203 -1.21638,0.40546 -2.31915,1.10977 -3.53553,1.51523 -0.81441,0.27147 -1.69255,0.29687 -2.52538,0.50508 -4.20402,1.051 0.60968,-0.0349 -2.52539,1.01015 -0.62701,0.209 -0.5503,-0.41463 -1.01015,0.50508 -0.0215,0.043 -0.0215,1.97724 0,2.0203 0.10648,0.21296 0.3986,0.29212 0.50508,0.50508 0.0753,0.15058 -0.0753,0.35449 0,0.50507 0.10648,0.21296 0.33672,0.33672 0.50507,0.50508 0.33672,0.33672 0.61394,0.74601 1.01016,1.01015 0.62647,0.41765 1.34687,0.67344 2.0203,1.01015 1.28716,0.64358 2.65506,1.11936 4.04061,1.51523 0.66746,0.1907 1.35286,0.31438 2.02031,0.50508 0.51191,0.14626 1.00331,0.35881 1.51523,0.50508 1.3349,0.3814 2.7057,0.62875 4.04061,1.01015 0.51191,0.14626 0.99007,0.41755 1.51523,0.50507 1.37085,0.22848 3.17483,-0.22847 4.54568,0 0.52516,0.0875 1.00332,0.35882 1.51523,0.50508 0.66745,0.1907 1.34268,0.35449 2.02031,0.50508 0.83802,0.18622 1.68736,0.31885 2.52538,0.50507 0.67763,0.15059 1.34267,0.35449 2.0203,0.50508 2.09388,0.46531 4.02452,0.83643 6.06092,1.51523 0.82137,0.27379 1.78221,0.5147 2.52538,1.01015 1.67513,1.67513 -0.47619,-0.23809 1.01015,0.50508 1.24825,0.62412 -0.17434,0.50507 1.01015,0.50507"
       id="path4167-0"
       inkscape:connector-curvature="0" />
  </g>
</svg>
